<?xml version="1.0" standalone="no"?><!-- Generator: Gravit.io --><svg xmlns="http://www.w3.org/2000/svg" xmlns:xlink="http://www.w3.org/1999/xlink" style="isolation:isolate" viewBox="0 0 408 114" width="408" height="114"><title>DreadLabs Softwareentwicklung</title><desc>Logo: DreadLabs Softwareentwicklung</desc><path d=" M 111.745 85.035 L 111.397 86.579 L 111.397 86.579 Q 109.066 85.701 106.78 85.701 L 106.78 85.701 L 106.78 85.701 Q 102.527 85.701 102.527 89.076 L 102.527 89.076 L 102.527 89.076 Q 102.527 90.317 103.087 90.991 L 103.087 90.991 L 103.087 90.991 Q 103.647 91.665 105.312 92.27 L 105.312 92.27 L 107.038 92.891 L 107.038 92.891 Q 107.204 92.951 107.537 93.072 L 107.537 93.072 L 107.537 93.072 Q 108.203 93.299 108.544 93.428 L 108.544 93.428 L 108.544 93.428 Q 108.884 93.557 109.467 93.837 L 109.467 93.837 L 109.467 93.837 Q 110.05 94.117 110.368 94.359 L 110.368 94.359 L 110.368 94.359 Q 110.686 94.601 111.094 95.017 L 111.094 95.017 L 111.094 95.017 Q 111.503 95.434 111.707 95.895 L 111.707 95.895 L 111.707 95.895 Q 111.912 96.357 112.063 97.015 L 112.063 97.015 L 112.063 97.015 Q 112.214 97.674 112.214 98.446 L 112.214 98.446 L 112.214 98.446 Q 112.214 101.08 110.61 102.51 L 110.61 102.51 L 110.61 102.51 Q 109.005 103.94 106.281 103.94 L 106.281 103.94 L 106.281 103.94 Q 102.784 103.94 100.589 102.76 L 100.589 102.76 L 101.013 101.17 L 101.013 101.17 Q 101.831 101.519 102.353 101.715 L 102.353 101.715 L 102.353 101.715 Q 102.875 101.912 103.942 102.124 L 103.942 102.124 L 103.942 102.124 Q 105.009 102.336 106.129 102.336 L 106.129 102.336 L 106.129 102.336 Q 108.067 102.336 109.172 101.36 L 109.172 101.36 L 109.172 101.36 Q 110.277 100.383 110.277 98.416 L 110.277 98.416 L 110.277 98.416 Q 110.277 97.719 110.11 97.189 L 110.11 97.189 L 110.11 97.189 Q 109.944 96.66 109.687 96.312 L 109.687 96.312 L 109.687 96.312 Q 109.429 95.963 108.899 95.653 L 108.899 95.653 L 108.899 95.653 Q 108.37 95.343 107.885 95.146 L 107.885 95.146 L 107.885 95.146 Q 107.401 94.949 106.553 94.662 L 106.553 94.662 L 104.691 94.041 L 104.691 94.041 Q 102.663 93.36 101.626 92.225 L 101.626 92.225 L 101.626 92.225 Q 100.589 91.089 100.589 89.122 L 100.589 89.122 L 100.589 89.122 Q 100.589 87.774 101.051 86.783 L 101.051 86.783 L 101.051 86.783 Q 101.513 85.792 102.345 85.216 L 102.345 85.216 L 102.345 85.216 Q 103.178 84.641 104.215 84.369 L 104.215 84.369 L 104.215 84.369 Q 105.251 84.096 106.523 84.096 L 106.523 84.096 L 106.523 84.096 Q 109.475 84.096 111.745 85.035 L 111.745 85.035 Z  M 125.164 101.95 L 125.164 101.95 L 125.164 101.95 Q 123.733 103.94 120.782 103.94 L 120.782 103.94 L 120.782 103.94 Q 117.83 103.94 116.4 101.95 L 116.4 101.95 L 116.4 101.95 Q 114.969 99.959 114.969 96.296 L 114.969 96.296 L 114.969 96.296 Q 114.969 92.467 116.369 90.56 L 116.369 90.56 L 116.369 90.56 Q 117.77 88.652 120.782 88.652 L 120.782 88.652 L 120.782 88.652 Q 123.794 88.652 125.194 90.56 L 125.194 90.56 L 125.194 90.56 Q 126.594 92.467 126.594 96.296 L 126.594 96.296 L 126.594 96.296 Q 126.594 99.959 125.164 101.95 Z  M 122.326 90.537 L 122.326 90.537 L 122.326 90.537 Q 121.66 90.242 120.782 90.242 L 120.782 90.242 L 120.782 90.242 Q 119.904 90.242 119.238 90.537 L 119.238 90.537 L 119.238 90.537 Q 118.572 90.832 118.133 91.347 L 118.133 91.347 L 118.133 91.347 Q 117.694 91.861 117.414 92.633 L 117.414 92.633 L 117.414 92.633 Q 117.134 93.405 117.02 94.298 L 117.02 94.298 L 117.02 94.298 Q 116.907 95.191 116.907 96.296 L 116.907 96.296 L 116.907 96.296 Q 116.907 97.719 117.088 98.771 L 117.088 98.771 L 117.088 98.771 Q 117.27 99.823 117.701 100.656 L 117.701 100.656 L 117.701 100.656 Q 118.133 101.488 118.905 101.912 L 118.905 101.912 L 118.905 101.912 Q 119.677 102.336 120.782 102.336 L 120.782 102.336 L 120.782 102.336 Q 121.887 102.336 122.659 101.912 L 122.659 101.912 L 122.659 101.912 Q 123.431 101.488 123.862 100.656 L 123.862 100.656 L 123.862 100.656 Q 124.293 99.823 124.475 98.771 L 124.475 98.771 L 124.475 98.771 Q 124.657 97.719 124.657 96.296 L 124.657 96.296 L 124.657 96.296 Q 124.657 95.191 124.543 94.298 L 124.543 94.298 L 124.543 94.298 Q 124.43 93.405 124.15 92.633 L 124.15 92.633 L 124.15 92.633 Q 123.87 91.861 123.431 91.347 L 123.431 91.347 L 123.431 91.347 Q 122.992 90.832 122.326 90.537 Z  M 134.011 103.789 L 132.074 103.789 L 132.074 90.272 L 129.167 90.272 L 129.167 88.879 L 132.074 88.879 L 132.074 88.879 Q 132.074 87.169 132.233 86.087 L 132.233 86.087 L 132.233 86.087 Q 132.392 85.004 132.823 84.217 L 132.823 84.217 L 132.823 84.217 Q 133.254 83.43 134.019 83.082 L 134.019 83.082 L 134.019 83.082 Q 134.783 82.734 135.994 82.688 L 135.994 82.688 L 135.994 82.688 Q 137.644 82.688 138.794 83.082 L 138.794 83.082 L 138.552 84.596 L 138.552 84.596 Q 138.234 84.505 137.523 84.391 L 137.523 84.391 L 137.523 84.391 Q 136.812 84.278 136.418 84.278 L 136.418 84.278 L 136.418 84.278 Q 135.707 84.278 135.29 84.429 L 135.29 84.429 L 135.29 84.429 Q 134.874 84.581 134.564 85.073 L 134.564 85.073 L 134.564 85.073 Q 134.253 85.564 134.132 86.465 L 134.132 86.465 L 134.132 86.465 Q 134.011 87.366 134.011 88.879 L 134.011 88.879 L 137.402 88.879 L 137.402 90.272 L 134.011 90.272 L 134.011 103.789 Z  M 145.757 103.94 L 145.757 103.94 L 145.757 103.94 Q 144.546 103.91 143.767 103.547 L 143.767 103.547 L 143.767 103.547 Q 142.987 103.184 142.548 102.404 L 142.548 102.404 L 142.548 102.404 Q 142.109 101.625 141.943 100.573 L 141.943 100.573 L 141.943 100.573 Q 141.776 99.521 141.776 97.916 L 141.776 97.916 L 141.776 90.242 L 139.46 90.242 L 139.46 88.879 L 141.837 88.879 L 142.215 84.611 L 143.714 84.611 L 143.714 88.879 L 148.376 88.879 L 148.376 90.242 L 143.714 90.242 L 143.714 97.946 L 143.714 97.946 Q 143.714 99.399 143.873 100.308 L 143.873 100.308 L 143.873 100.308 Q 144.032 101.216 144.403 101.647 L 144.403 101.647 L 144.403 101.647 Q 144.773 102.079 145.182 102.207 L 145.182 102.207 L 145.182 102.207 Q 145.591 102.336 146.272 102.336 L 146.272 102.336 L 146.272 102.336 Q 147.831 102.336 148.542 102.23 L 148.542 102.23 L 148.618 103.789 L 148.618 103.789 Q 147.407 103.94 145.757 103.94 Z  M 158.896 92.24 L 160.682 92.24 L 163.921 102.079 L 166.616 88.879 L 168.508 88.879 L 165.117 103.789 L 162.998 103.789 L 159.789 94.298 L 156.595 103.789 L 154.446 103.789 L 150.828 88.879 L 152.72 88.879 L 155.611 102.079 L 158.896 92.24 Z  M 172.958 99.581 L 172.958 99.581 L 172.958 99.581 Q 172.958 102.396 176.228 102.396 L 176.228 102.396 L 176.228 102.396 Q 177.196 102.396 178.203 102.109 L 178.203 102.109 L 178.203 102.109 Q 179.209 101.821 179.86 101.397 L 179.86 101.397 L 179.86 96.629 L 179.013 96.629 L 179.013 96.629 Q 178.286 96.629 177.681 96.667 L 177.681 96.667 L 177.681 96.667 Q 177.075 96.705 176.333 96.796 L 176.333 96.796 L 176.333 96.796 Q 175.592 96.887 175.032 97.099 L 175.032 97.099 L 175.032 97.099 Q 174.472 97.311 173.98 97.621 L 173.98 97.621 L 173.98 97.621 Q 173.488 97.931 173.223 98.431 L 173.223 98.431 L 173.223 98.431 Q 172.958 98.93 172.958 99.581 Z  M 172.383 91.029 L 172.004 89.53 L 172.004 89.53 Q 174.684 88.652 176.667 88.652 L 176.667 88.652 L 176.667 88.652 Q 177.787 88.652 178.68 88.963 L 178.68 88.963 L 178.68 88.963 Q 179.573 89.273 180.277 89.931 L 180.277 89.931 L 180.277 89.931 Q 180.98 90.59 181.366 91.733 L 181.366 91.733 L 181.366 91.733 Q 181.752 92.875 181.752 94.45 L 181.752 94.45 L 181.752 103.789 L 180.36 103.789 L 180.057 102.79 L 180.057 102.79 Q 179.512 103.229 178.301 103.585 L 178.301 103.585 L 178.301 103.585 Q 177.09 103.94 175.925 103.94 L 175.925 103.94 L 175.925 103.94 Q 173.745 103.94 172.443 102.805 L 172.443 102.805 L 172.443 102.805 Q 171.142 101.67 171.142 99.49 L 171.142 99.49 L 171.142 99.49 Q 171.142 98.794 171.361 98.196 L 171.361 98.196 L 171.361 98.196 Q 171.581 97.598 172.118 97.038 L 172.118 97.038 L 172.118 97.038 Q 172.655 96.478 173.48 96.077 L 173.48 96.077 L 173.48 96.077 Q 174.305 95.676 175.592 95.441 L 175.592 95.441 L 175.592 95.441 Q 176.878 95.207 178.528 95.207 L 178.528 95.207 L 179.86 95.207 L 179.86 94.722 L 179.86 94.722 Q 179.845 92.24 178.99 91.241 L 178.99 91.241 L 178.99 91.241 Q 178.135 90.242 176.576 90.242 L 176.576 90.242 L 176.576 90.242 Q 176.349 90.242 176.084 90.264 L 176.084 90.264 L 176.084 90.264 Q 175.819 90.287 175.622 90.31 L 175.622 90.31 L 175.622 90.31 Q 175.425 90.333 175.085 90.401 L 175.085 90.401 L 175.085 90.401 Q 174.744 90.469 174.585 90.491 L 174.585 90.491 L 174.585 90.491 Q 174.426 90.514 174.018 90.613 L 174.018 90.613 L 174.018 90.613 Q 173.609 90.711 173.503 90.741 L 173.503 90.741 L 173.503 90.741 Q 173.397 90.771 172.92 90.893 L 172.92 90.893 L 172.92 90.893 Q 172.443 91.014 172.383 91.029 L 172.383 91.029 Z  M 187.974 88.879 L 188.049 90.181 L 188.049 90.181 Q 188.942 89.576 190.312 89.137 L 190.312 89.137 L 190.312 89.137 Q 191.682 88.698 192.833 88.652 L 192.833 88.652 L 192.833 90.272 L 192.833 90.272 Q 191.516 90.272 190.161 90.673 L 190.161 90.673 L 190.161 90.673 Q 188.806 91.074 188.064 91.619 L 188.064 91.619 L 188.064 103.789 L 186.127 103.789 L 186.127 88.879 L 187.974 88.879 Z  M 201.46 90.242 L 201.46 90.242 L 201.46 90.242 Q 199.553 90.242 198.539 91.566 L 198.539 91.566 L 198.539 91.566 Q 197.525 92.891 197.343 95.328 L 197.343 95.328 L 205.018 95.328 L 205.018 94.571 L 205.018 94.571 Q 205.018 92.588 204.056 91.415 L 204.056 91.415 L 204.056 91.415 Q 203.095 90.242 201.46 90.242 Z  M 201.718 102.336 L 201.718 102.336 L 201.718 102.336 Q 204.049 102.336 205.956 101.125 L 205.956 101.125 L 206.546 102.654 L 206.546 102.654 Q 205.517 103.29 204.246 103.615 L 204.246 103.615 L 204.246 103.615 Q 202.974 103.94 201.824 103.94 L 201.824 103.94 L 201.824 103.94 Q 198.766 103.94 197.086 102.094 L 197.086 102.094 L 197.086 102.094 Q 195.406 100.247 195.406 96.281 L 195.406 96.281 L 195.406 96.281 Q 195.406 92.482 197.041 90.567 L 197.041 90.567 L 197.041 90.567 Q 198.675 88.652 201.445 88.652 L 201.445 88.652 L 201.445 88.652 Q 203.943 88.652 205.381 90.287 L 205.381 90.287 L 205.381 90.287 Q 206.819 91.922 206.819 94.646 L 206.819 94.646 L 206.819 94.646 Q 206.819 95.267 206.698 96.69 L 206.698 96.69 L 197.343 96.69 L 197.343 96.69 Q 197.358 98.037 197.616 99.059 L 197.616 99.059 L 197.616 99.059 Q 197.873 100.081 198.267 100.694 L 198.267 100.694 L 198.267 100.694 Q 198.66 101.307 199.243 101.685 L 199.243 101.685 L 199.243 101.685 Q 199.826 102.063 200.416 102.2 L 200.416 102.2 L 200.416 102.2 Q 201.006 102.336 201.718 102.336 Z  M 216.052 90.242 L 216.052 90.242 L 216.052 90.242 Q 214.145 90.242 213.131 91.566 L 213.131 91.566 L 213.131 91.566 Q 212.117 92.891 211.935 95.328 L 211.935 95.328 L 219.609 95.328 L 219.609 94.571 L 219.609 94.571 Q 219.609 92.588 218.648 91.415 L 218.648 91.415 L 218.648 91.415 Q 217.687 90.242 216.052 90.242 Z  M 216.31 102.336 L 216.31 102.336 L 216.31 102.336 Q 218.641 102.336 220.548 101.125 L 220.548 101.125 L 221.138 102.654 L 221.138 102.654 Q 220.109 103.29 218.837 103.615 L 218.837 103.615 L 218.837 103.615 Q 217.566 103.94 216.416 103.94 L 216.416 103.94 L 216.416 103.94 Q 213.358 103.94 211.678 102.094 L 211.678 102.094 L 211.678 102.094 Q 209.998 100.247 209.998 96.281 L 209.998 96.281 L 209.998 96.281 Q 209.998 92.482 211.632 90.567 L 211.632 90.567 L 211.632 90.567 Q 213.267 88.652 216.037 88.652 L 216.037 88.652 L 216.037 88.652 Q 218.535 88.652 219.973 90.287 L 219.973 90.287 L 219.973 90.287 Q 221.411 91.922 221.411 94.646 L 221.411 94.646 L 221.411 94.646 Q 221.411 95.267 221.29 96.69 L 221.29 96.69 L 211.935 96.69 L 211.935 96.69 Q 211.95 98.037 212.208 99.059 L 212.208 99.059 L 212.208 99.059 Q 212.465 100.081 212.858 100.694 L 212.858 100.694 L 212.858 100.694 Q 213.252 101.307 213.835 101.685 L 213.835 101.685 L 213.835 101.685 Q 214.417 102.063 215.008 102.2 L 215.008 102.2 L 215.008 102.2 Q 215.598 102.336 216.31 102.336 Z  M 227.011 91.347 L 227.011 91.347 L 227.011 103.789 L 225.074 103.789 L 225.074 88.879 L 226.663 88.879 L 226.799 89.848 L 226.799 89.848 Q 228.283 89.152 229.282 88.902 L 229.282 88.902 L 229.282 88.902 Q 230.281 88.652 231.431 88.652 L 231.431 88.652 L 231.431 88.652 Q 233.732 88.652 234.829 89.909 L 234.829 89.909 L 234.829 89.909 Q 235.927 91.165 235.927 93.753 L 235.927 93.753 L 235.927 103.789 L 233.989 103.789 L 233.989 93.678 L 233.989 93.678 Q 233.989 91.831 233.406 91.036 L 233.406 91.036 L 233.406 91.036 Q 232.824 90.242 231.325 90.242 L 231.325 90.242 L 231.325 90.242 Q 229.024 90.242 227.011 91.347 Z  M 245.009 103.94 L 245.009 103.94 L 245.009 103.94 Q 243.798 103.91 243.018 103.547 L 243.018 103.547 L 243.018 103.547 Q 242.239 103.184 241.8 102.404 L 241.8 102.404 L 241.8 102.404 Q 241.361 101.625 241.194 100.573 L 241.194 100.573 L 241.194 100.573 Q 241.028 99.521 241.028 97.916 L 241.028 97.916 L 241.028 90.242 L 238.712 90.242 L 238.712 88.879 L 241.088 88.879 L 241.467 84.611 L 242.965 84.611 L 242.965 88.879 L 247.627 88.879 L 247.627 90.242 L 242.965 90.242 L 242.965 97.946 L 242.965 97.946 Q 242.965 99.399 243.124 100.308 L 243.124 100.308 L 243.124 100.308 Q 243.283 101.216 243.654 101.647 L 243.654 101.647 L 243.654 101.647 Q 244.025 102.079 244.434 102.207 L 244.434 102.207 L 244.434 102.207 Q 244.842 102.336 245.523 102.336 L 245.523 102.336 L 245.523 102.336 Q 247.083 102.336 247.794 102.23 L 247.794 102.23 L 247.87 103.789 L 247.87 103.789 Q 246.659 103.94 245.009 103.94 Z  M 258.147 92.24 L 259.934 92.24 L 263.173 102.079 L 265.867 88.879 L 267.759 88.879 L 264.369 103.789 L 262.25 103.789 L 259.041 94.298 L 255.847 103.789 L 253.697 103.789 L 250.08 88.879 L 251.972 88.879 L 254.863 102.079 L 258.147 92.24 Z  M 273.027 84.656 L 273.027 84.656 L 273.027 84.656 Q 273.027 84.021 273.42 83.642 L 273.42 83.642 L 273.42 83.642 Q 273.814 83.264 274.404 83.264 L 274.404 83.264 L 274.404 83.264 Q 275.025 83.264 275.396 83.612 L 275.396 83.612 L 275.396 83.612 Q 275.767 83.96 275.767 84.626 L 275.767 84.626 L 275.767 84.626 Q 275.767 85.292 275.396 85.64 L 275.396 85.64 L 275.396 85.64 Q 275.025 85.988 274.404 85.988 L 274.404 85.988 L 274.404 85.988 Q 273.799 85.988 273.413 85.633 L 273.413 85.633 L 273.413 85.633 Q 273.027 85.277 273.027 84.656 Z  M 273.436 90.242 L 270.529 90.242 L 270.529 88.879 L 275.373 88.879 L 275.373 102.427 L 278.279 102.427 L 278.279 103.789 L 270.529 103.789 L 270.529 102.427 L 273.436 102.427 L 273.436 90.242 Z  M 290.343 101.216 L 290.343 101.216 L 291.07 102.593 L 291.07 102.593 Q 289.223 103.94 286.665 103.94 L 286.665 103.94 L 286.665 103.94 Q 284.016 103.94 282.321 101.958 L 282.321 101.958 L 282.321 101.958 Q 280.625 99.975 280.625 96.296 L 280.625 96.296 L 280.625 96.296 Q 280.625 88.652 286.499 88.652 L 286.499 88.652 L 286.499 88.652 Q 288.557 88.652 290.479 89.561 L 290.479 89.561 L 290.479 93.466 L 288.936 93.617 L 288.936 90.59 L 288.936 90.59 Q 287.937 90.196 286.468 90.196 L 286.468 90.196 L 286.468 90.196 Q 285.348 90.196 284.569 90.635 L 284.569 90.635 L 284.569 90.635 Q 283.789 91.074 283.358 91.922 L 283.358 91.922 L 283.358 91.922 Q 282.926 92.77 282.745 93.837 L 282.745 93.837 L 282.745 93.837 Q 282.563 94.904 282.563 96.327 L 282.563 96.327 L 282.563 96.327 Q 282.563 99.218 283.736 100.792 L 283.736 100.792 L 283.736 100.792 Q 284.909 102.366 286.877 102.366 L 286.877 102.366 L 286.877 102.366 Q 288.648 102.366 290.343 101.216 Z  M 296.125 103.789 L 294.188 103.789 L 294.188 83.233 L 296.125 83.233 L 296.125 96.312 L 296.125 96.312 Q 300.742 91.377 302.952 88.879 L 302.952 88.879 L 305.268 88.879 L 298.971 95.888 L 305.813 103.789 L 303.573 103.789 L 303.573 103.789 Q 302.271 102.336 300.856 100.716 L 300.856 100.716 L 300.856 100.716 Q 299.44 99.097 298.668 98.188 L 298.668 98.188 L 297.896 97.295 L 297.503 96.856 L 296.125 98.083 L 296.125 103.789 Z  M 307.342 84.611 L 307.342 83.233 L 312.625 83.233 L 312.625 102.427 L 315.818 102.427 L 315.818 103.789 L 307.312 103.789 L 307.312 102.427 L 310.687 102.427 L 310.687 84.611 L 307.342 84.611 Z  M 327.428 101.322 L 327.428 101.322 L 327.428 88.879 L 329.366 88.879 L 329.366 103.789 L 327.776 103.789 L 327.64 102.82 L 327.64 102.82 Q 326.202 103.501 325.196 103.721 L 325.196 103.721 L 325.196 103.721 Q 324.189 103.94 322.963 103.94 L 322.963 103.94 L 322.963 103.94 Q 320.662 103.94 319.587 102.729 L 319.587 102.729 L 319.587 102.729 Q 318.513 101.519 318.513 98.93 L 318.513 98.93 L 318.513 88.879 L 320.45 88.879 L 320.45 99.006 L 320.45 99.006 Q 320.45 100.822 321.048 101.579 L 321.048 101.579 L 321.048 101.579 Q 321.646 102.336 323.16 102.336 L 323.16 102.336 L 323.16 102.336 Q 323.917 102.336 324.393 102.298 L 324.393 102.298 L 324.393 102.298 Q 324.87 102.26 325.725 102.026 L 325.725 102.026 L 325.725 102.026 Q 326.581 101.791 327.428 101.322 Z  M 335.557 91.347 L 335.557 91.347 L 335.557 103.789 L 333.619 103.789 L 333.619 88.879 L 335.208 88.879 L 335.345 89.848 L 335.345 89.848 Q 336.828 89.152 337.827 88.902 L 337.827 88.902 L 337.827 88.902 Q 338.826 88.652 339.977 88.652 L 339.977 88.652 L 339.977 88.652 Q 342.277 88.652 343.375 89.909 L 343.375 89.909 L 343.375 89.909 Q 344.472 91.165 344.472 93.753 L 344.472 93.753 L 344.472 103.789 L 342.535 103.789 L 342.535 93.678 L 342.535 93.678 Q 342.535 91.831 341.952 91.036 L 341.952 91.036 L 341.952 91.036 Q 341.369 90.242 339.871 90.242 L 339.871 90.242 L 339.871 90.242 Q 337.57 90.242 335.557 91.347 Z  M 354.296 107.346 L 354.296 107.346 L 354.296 107.346 Q 356.748 107.346 357.974 106.514 L 357.974 106.514 L 357.974 106.514 Q 359.2 105.681 359.2 104.531 L 359.2 104.531 L 359.2 104.531 Q 359.2 103.668 358.754 103.237 L 358.754 103.237 L 358.754 103.237 Q 358.307 102.805 356.975 102.805 L 356.975 102.805 L 351.238 102.805 L 351.238 102.805 Q 350.133 103.85 350.133 104.985 L 350.133 104.985 L 350.133 104.985 Q 350.133 105.288 350.171 105.507 L 350.171 105.507 L 350.171 105.507 Q 350.209 105.727 350.33 106.029 L 350.33 106.029 L 350.33 106.029 Q 350.451 106.332 350.731 106.544 L 350.731 106.544 L 350.731 106.544 Q 351.011 106.756 351.443 106.953 L 351.443 106.953 L 351.443 106.953 Q 351.874 107.149 352.608 107.248 L 352.608 107.248 L 352.608 107.248 Q 353.342 107.346 354.296 107.346 Z  M 357.641 89 L 357.641 89 L 361.985 89 L 361.985 90.423 L 358.61 90.423 L 358.61 90.423 Q 359.397 91.014 359.821 91.876 L 359.821 91.876 L 359.821 91.876 Q 360.245 92.739 360.245 93.587 L 360.245 93.587 L 360.245 93.587 Q 360.245 95.646 358.701 96.864 L 358.701 96.864 L 358.701 96.864 Q 357.157 98.083 354.644 98.083 L 354.644 98.083 L 354.644 98.083 Q 352.918 98.083 351.526 97.522 L 351.526 97.522 L 351.526 97.522 Q 350.527 99.142 350.527 99.944 L 350.527 99.944 L 350.527 99.944 Q 350.527 100.308 350.648 100.648 L 350.648 100.648 L 350.648 100.648 Q 350.769 100.989 350.89 101.14 L 350.89 101.14 L 350.996 101.292 L 356.733 101.292 L 356.733 101.292 Q 359.125 101.292 360.071 102.033 L 360.071 102.033 L 360.071 102.033 Q 361.017 102.775 361.017 104.41 L 361.017 104.41 L 361.017 104.41 Q 361.017 105.03 360.827 105.621 L 360.827 105.621 L 360.827 105.621 Q 360.638 106.211 360.154 106.824 L 360.154 106.824 L 360.154 106.824 Q 359.669 107.437 358.928 107.899 L 358.928 107.899 L 358.928 107.899 Q 358.186 108.36 356.968 108.648 L 356.968 108.648 L 356.968 108.648 Q 355.749 108.936 354.205 108.936 L 354.205 108.936 L 354.205 108.936 Q 352.767 108.936 351.655 108.671 L 351.655 108.671 L 351.655 108.671 Q 350.542 108.406 349.906 108.02 L 349.906 108.02 L 349.906 108.02 Q 349.271 107.634 348.869 107.104 L 348.869 107.104 L 348.869 107.104 Q 348.468 106.574 348.332 106.12 L 348.332 106.12 L 348.332 106.12 Q 348.196 105.666 348.196 105.197 L 348.196 105.197 L 348.196 105.197 Q 348.196 104.349 348.763 103.501 L 348.763 103.501 L 348.763 103.501 Q 349.331 102.654 349.876 102.336 L 349.876 102.336 L 349.876 102.336 Q 349.376 102.003 349.089 101.397 L 349.089 101.397 L 349.089 101.397 Q 348.801 100.792 348.801 100.202 L 348.801 100.202 L 348.801 100.202 Q 348.801 99.399 349.149 98.688 L 349.149 98.688 L 349.149 98.688 Q 349.498 97.977 350.36 96.75 L 350.36 96.75 L 350.36 96.75 Q 348.68 95.343 348.68 93.375 L 348.68 93.375 L 348.68 93.375 Q 348.68 90.999 350.323 89.825 L 350.323 89.825 L 350.323 89.825 Q 351.965 88.652 354.568 88.652 L 354.568 88.652 L 354.568 88.652 Q 355.25 88.652 356.158 88.826 L 356.158 88.826 L 356.158 88.826 Q 357.066 89 357.641 89 Z  M 354.659 90.09 L 354.659 90.09 L 354.659 90.09 Q 352.57 90.09 351.594 90.983 L 351.594 90.983 L 351.594 90.983 Q 350.618 91.876 350.618 93.36 L 350.618 93.36 L 350.618 93.36 Q 350.618 94.934 351.647 95.767 L 351.647 95.767 L 351.647 95.767 Q 352.676 96.599 354.508 96.599 L 354.508 96.599 L 354.508 96.599 Q 356.445 96.599 357.459 95.827 L 357.459 95.827 L 357.459 95.827 Q 358.474 95.055 358.474 93.526 L 358.474 93.526 L 358.474 93.526 Q 358.474 92.043 357.505 91.067 L 357.505 91.067 L 357.505 91.067 Q 356.536 90.09 354.659 90.09 Z " fill-rule="evenodd" fill="rgb(16,9,76)"/><path d=" M 110.223 69.188 L 110.223 69.188 L 100.238 69.188 L 100.238 24.047 L 109.836 24.047 L 109.836 24.047 Q 113.844 24.047 116.832 24.574 L 116.832 24.574 L 116.832 24.574 Q 119.82 25.102 122.018 26.332 L 122.018 26.332 L 122.018 26.332 Q 124.215 27.563 125.639 29.285 L 125.639 29.285 L 125.639 29.285 Q 127.063 31.008 127.924 33.662 L 127.924 33.662 L 127.924 33.662 Q 128.785 36.316 129.137 39.445 L 129.137 39.445 L 129.137 39.445 Q 129.488 42.574 129.488 46.828 L 129.488 46.828 L 129.488 46.828 Q 129.488 50.098 129.295 52.594 L 129.295 52.594 L 129.295 52.594 Q 129.102 55.09 128.574 57.516 L 128.574 57.516 L 128.574 57.516 Q 128.047 59.941 127.133 61.664 L 127.133 61.664 L 127.133 61.664 Q 126.219 63.387 124.777 64.881 L 124.777 64.881 L 124.777 64.881 Q 123.336 66.375 121.314 67.271 L 121.314 67.271 L 121.314 67.271 Q 119.293 68.168 116.516 68.678 L 116.516 68.678 L 116.516 68.678 Q 113.738 69.188 110.223 69.188 Z  M 109.836 27.563 L 109.836 27.563 L 104.738 27.563 L 104.738 65.672 L 110.223 65.672 L 110.223 65.672 Q 112.473 65.672 114.283 65.443 L 114.283 65.443 L 114.283 65.443 Q 116.094 65.215 117.535 64.811 L 117.535 64.811 L 117.535 64.811 Q 118.977 64.406 120.066 63.668 L 120.066 63.668 L 120.066 63.668 Q 121.156 62.93 121.947 62.104 L 121.947 62.104 L 121.947 62.104 Q 122.738 61.277 123.283 60.012 L 123.283 60.012 L 123.283 60.012 Q 123.828 58.746 124.162 57.498 L 124.162 57.498 L 124.162 57.498 Q 124.496 56.25 124.672 54.439 L 124.672 54.439 L 124.672 54.439 Q 124.848 52.629 124.918 50.924 L 124.918 50.924 L 124.918 50.924 Q 124.988 49.219 124.988 46.828 L 124.988 46.828 L 124.988 46.828 Q 124.988 43.102 124.777 40.553 L 124.777 40.553 L 124.777 40.553 Q 124.566 38.004 123.986 35.701 L 123.986 35.701 L 123.986 35.701 Q 123.406 33.398 122.369 31.975 L 122.369 31.975 L 122.369 31.975 Q 121.332 30.551 119.627 29.496 L 119.627 29.496 L 119.627 29.496 Q 117.922 28.441 115.531 28.002 L 115.531 28.002 L 115.531 28.002 Q 113.141 27.563 109.836 27.563 Z  M 143.059 34.559 L 143.234 37.582 L 143.234 37.582 Q 145.309 36.176 148.49 35.156 L 148.49 35.156 L 148.49 35.156 Q 151.672 34.137 154.344 34.031 L 154.344 34.031 L 154.344 37.793 L 154.344 37.793 Q 151.285 37.793 148.139 38.725 L 148.139 38.725 L 148.139 38.725 Q 144.992 39.656 143.27 40.922 L 143.27 40.922 L 143.27 69.188 L 138.77 69.188 L 138.77 34.559 L 143.059 34.559 Z  M 174.383 37.723 L 174.383 37.723 L 174.383 37.723 Q 169.953 37.723 167.598 40.799 L 167.598 40.799 L 167.598 40.799 Q 165.242 43.875 164.82 49.535 L 164.82 49.535 L 182.645 49.535 L 182.645 47.777 L 182.645 47.777 Q 182.645 43.172 180.412 40.447 L 180.412 40.447 L 180.412 40.447 Q 178.18 37.723 174.383 37.723 Z  M 174.98 65.813 L 174.98 65.813 L 174.98 65.813 Q 180.395 65.813 184.824 63 L 184.824 63 L 186.195 66.551 L 186.195 66.551 Q 183.805 68.027 180.852 68.783 L 180.852 68.783 L 180.852 68.783 Q 177.898 69.539 175.227 69.539 L 175.227 69.539 L 175.227 69.539 Q 168.125 69.539 164.223 65.25 L 164.223 65.25 L 164.223 65.25 Q 160.32 60.961 160.32 51.75 L 160.32 51.75 L 160.32 51.75 Q 160.32 42.926 164.117 38.479 L 164.117 38.479 L 164.117 38.479 Q 167.914 34.031 174.348 34.031 L 174.348 34.031 L 174.348 34.031 Q 180.148 34.031 183.488 37.828 L 183.488 37.828 L 183.488 37.828 Q 186.828 41.625 186.828 47.953 L 186.828 47.953 L 186.828 47.953 Q 186.828 49.395 186.547 52.699 L 186.547 52.699 L 164.82 52.699 L 164.82 52.699 Q 164.855 55.828 165.453 58.201 L 165.453 58.201 L 165.453 58.201 Q 166.051 60.574 166.965 61.998 L 166.965 61.998 L 166.965 61.998 Q 167.879 63.422 169.232 64.301 L 169.232 64.301 L 169.232 64.301 Q 170.586 65.18 171.957 65.496 L 171.957 65.496 L 171.957 65.496 Q 173.328 65.813 174.98 65.813 Z  M 198.465 59.414 L 198.465 59.414 L 198.465 59.414 Q 198.465 65.953 206.059 65.953 L 206.059 65.953 L 206.059 65.953 Q 208.309 65.953 210.646 65.285 L 210.646 65.285 L 210.646 65.285 Q 212.984 64.617 214.496 63.633 L 214.496 63.633 L 214.496 52.559 L 212.527 52.559 L 212.527 52.559 Q 210.84 52.559 209.434 52.646 L 209.434 52.646 L 209.434 52.646 Q 208.027 52.734 206.305 52.945 L 206.305 52.945 L 206.305 52.945 Q 204.582 53.156 203.281 53.648 L 203.281 53.648 L 203.281 53.648 Q 201.98 54.141 200.838 54.861 L 200.838 54.861 L 200.838 54.861 Q 199.695 55.582 199.08 56.742 L 199.08 56.742 L 199.08 56.742 Q 198.465 57.902 198.465 59.414 Z  M 197.129 39.551 L 196.25 36.07 L 196.25 36.07 Q 202.473 34.031 207.078 34.031 L 207.078 34.031 L 207.078 34.031 Q 209.68 34.031 211.754 34.752 L 211.754 34.752 L 211.754 34.752 Q 213.828 35.473 215.463 37.002 L 215.463 37.002 L 215.463 37.002 Q 217.098 38.531 217.994 41.186 L 217.994 41.186 L 217.994 41.186 Q 218.891 43.84 218.891 47.496 L 218.891 47.496 L 218.891 69.188 L 215.656 69.188 L 214.953 66.867 L 214.953 66.867 Q 213.688 67.887 210.875 68.713 L 210.875 68.713 L 210.875 68.713 Q 208.063 69.539 205.355 69.539 L 205.355 69.539 L 205.355 69.539 Q 200.293 69.539 197.27 66.902 L 197.27 66.902 L 197.27 66.902 Q 194.246 64.266 194.246 59.203 L 194.246 59.203 L 194.246 59.203 Q 194.246 57.586 194.756 56.197 L 194.756 56.197 L 194.756 56.197 Q 195.266 54.809 196.514 53.508 L 196.514 53.508 L 196.514 53.508 Q 197.762 52.207 199.678 51.275 L 199.678 51.275 L 199.678 51.275 Q 201.594 50.344 204.582 49.799 L 204.582 49.799 L 204.582 49.799 Q 207.57 49.254 211.402 49.254 L 211.402 49.254 L 214.496 49.254 L 214.496 48.129 L 214.496 48.129 Q 214.461 42.363 212.475 40.043 L 212.475 40.043 L 212.475 40.043 Q 210.488 37.723 206.867 37.723 L 206.867 37.723 L 206.867 37.723 Q 206.34 37.723 205.725 37.775 L 205.725 37.775 L 205.725 37.775 Q 205.109 37.828 204.652 37.881 L 204.652 37.881 L 204.652 37.881 Q 204.195 37.934 203.404 38.092 L 203.404 38.092 L 203.404 38.092 Q 202.613 38.25 202.244 38.303 L 202.244 38.303 L 202.244 38.303 Q 201.875 38.355 200.926 38.584 L 200.926 38.584 L 200.926 38.584 Q 199.977 38.813 199.73 38.883 L 199.73 38.883 L 199.73 38.883 Q 199.484 38.953 198.377 39.234 L 198.377 39.234 L 198.377 39.234 Q 197.27 39.516 197.129 39.551 L 197.129 39.551 Z  M 250.004 36.738 L 250.004 21.445 L 254.504 21.445 L 254.504 69.188 L 250.848 69.188 L 250.496 67.43 L 250.496 67.43 Q 246.559 69.539 241.988 69.539 L 241.988 69.539 L 241.988 69.539 Q 238.754 69.539 236.223 68.572 L 236.223 68.572 L 236.223 68.572 Q 233.691 67.605 231.74 65.549 L 231.74 65.549 L 231.74 65.549 Q 229.789 63.492 228.752 60.029 L 228.752 60.029 L 228.752 60.029 Q 227.715 56.566 227.715 51.855 L 227.715 51.855 L 227.715 51.855 Q 227.715 48.164 228.418 45.158 L 228.418 45.158 L 228.418 45.158 Q 229.121 42.152 230.334 40.113 L 230.334 40.113 L 230.334 40.113 Q 231.547 38.074 233.234 36.686 L 233.234 36.686 L 233.234 36.686 Q 234.922 35.297 236.855 34.664 L 236.855 34.664 L 236.855 34.664 Q 238.789 34.031 240.934 34.031 L 240.934 34.031 L 240.934 34.031 Q 243.324 34.031 245.398 34.594 L 245.398 34.594 L 245.398 34.594 Q 247.473 35.156 250.004 36.738 L 250.004 36.738 Z  M 250.004 64.371 L 250.004 64.371 L 250.004 40.746 L 250.004 40.746 Q 247.121 39.094 245.205 38.408 L 245.205 38.408 L 245.205 38.408 Q 243.289 37.723 241.496 37.723 L 241.496 37.723 L 241.496 37.723 Q 237.207 37.723 234.711 41.291 L 234.711 41.291 L 234.711 41.291 Q 232.215 44.859 232.215 51.926 L 232.215 51.926 L 232.215 51.926 Q 232.215 65.813 242.621 65.813 L 242.621 65.813 L 243.605 65.813 L 243.605 65.813 Q 246.91 65.813 250.004 64.371 Z  M 264.664 24.047 L 269.164 24.047 L 269.164 65.672 L 286.461 65.672 L 287.059 69.188 L 264.664 69.188 L 264.664 24.047 Z  M 296.48 59.414 L 296.48 59.414 L 296.48 59.414 Q 296.48 65.953 304.074 65.953 L 304.074 65.953 L 304.074 65.953 Q 306.324 65.953 308.662 65.285 L 308.662 65.285 L 308.662 65.285 Q 311 64.617 312.512 63.633 L 312.512 63.633 L 312.512 52.559 L 310.543 52.559 L 310.543 52.559 Q 308.855 52.559 307.449 52.646 L 307.449 52.646 L 307.449 52.646 Q 306.043 52.734 304.32 52.945 L 304.32 52.945 L 304.32 52.945 Q 302.598 53.156 301.297 53.648 L 301.297 53.648 L 301.297 53.648 Q 299.996 54.141 298.854 54.861 L 298.854 54.861 L 298.854 54.861 Q 297.711 55.582 297.096 56.742 L 297.096 56.742 L 297.096 56.742 Q 296.48 57.902 296.48 59.414 Z  M 295.145 39.551 L 294.266 36.07 L 294.266 36.07 Q 300.488 34.031 305.094 34.031 L 305.094 34.031 L 305.094 34.031 Q 307.695 34.031 309.77 34.752 L 309.77 34.752 L 309.77 34.752 Q 311.844 35.473 313.479 37.002 L 313.479 37.002 L 313.479 37.002 Q 315.113 38.531 316.01 41.186 L 316.01 41.186 L 316.01 41.186 Q 316.906 43.84 316.906 47.496 L 316.906 47.496 L 316.906 69.188 L 313.672 69.188 L 312.969 66.867 L 312.969 66.867 Q 311.703 67.887 308.891 68.713 L 308.891 68.713 L 308.891 68.713 Q 306.078 69.539 303.371 69.539 L 303.371 69.539 L 303.371 69.539 Q 298.309 69.539 295.285 66.902 L 295.285 66.902 L 295.285 66.902 Q 292.262 64.266 292.262 59.203 L 292.262 59.203 L 292.262 59.203 Q 292.262 57.586 292.771 56.197 L 292.771 56.197 L 292.771 56.197 Q 293.281 54.809 294.529 53.508 L 294.529 53.508 L 294.529 53.508 Q 295.777 52.207 297.693 51.275 L 297.693 51.275 L 297.693 51.275 Q 299.609 50.344 302.598 49.799 L 302.598 49.799 L 302.598 49.799 Q 305.586 49.254 309.418 49.254 L 309.418 49.254 L 312.512 49.254 L 312.512 48.129 L 312.512 48.129 Q 312.477 42.363 310.49 40.043 L 310.49 40.043 L 310.49 40.043 Q 308.504 37.723 304.883 37.723 L 304.883 37.723 L 304.883 37.723 Q 304.355 37.723 303.74 37.775 L 303.74 37.775 L 303.74 37.775 Q 303.125 37.828 302.668 37.881 L 302.668 37.881 L 302.668 37.881 Q 302.211 37.934 301.42 38.092 L 301.42 38.092 L 301.42 38.092 Q 300.629 38.25 300.26 38.303 L 300.26 38.303 L 300.26 38.303 Q 299.891 38.355 298.941 38.584 L 298.941 38.584 L 298.941 38.584 Q 297.992 38.813 297.746 38.883 L 297.746 38.883 L 297.746 38.883 Q 297.5 38.953 296.393 39.234 L 296.393 39.234 L 296.393 39.234 Q 295.285 39.516 295.145 39.551 L 295.145 39.551 Z  M 326.855 21.445 L 331.355 21.445 L 331.355 36.738 L 331.355 36.738 Q 335.75 34.031 340.918 34.031 L 340.918 34.031 L 340.918 34.031 Q 346.438 34.031 349.584 38.391 L 349.584 38.391 L 349.584 38.391 Q 352.73 42.75 352.73 51.855 L 352.73 51.855 L 352.73 51.855 Q 352.73 61.277 349.531 65.408 L 349.531 65.408 L 349.531 65.408 Q 346.332 69.539 339.863 69.539 L 339.863 69.539 L 339.863 69.539 Q 334.801 69.539 330.863 67.43 L 330.863 67.43 L 330.512 69.188 L 326.855 69.188 L 326.855 21.445 Z  M 331.355 40.746 L 331.355 64.371 L 331.355 64.371 Q 334.449 65.813 338.211 65.813 L 338.211 65.813 L 339.23 65.813 L 339.23 65.813 Q 344.012 65.813 346.121 62.596 L 346.121 62.596 L 346.121 62.596 Q 348.23 59.379 348.23 51.926 L 348.23 51.926 L 348.23 51.926 Q 348.23 44.613 346.35 41.168 L 346.35 41.168 L 346.35 41.168 Q 344.469 37.723 340.355 37.723 L 340.355 37.723 L 340.355 37.723 Q 336.594 37.723 331.355 40.746 L 331.355 40.746 Z  M 360.359 66.762 L 361.801 63.316 L 361.801 63.316 Q 363.559 64.301 366.354 65.057 L 366.354 65.057 L 366.354 65.057 Q 369.148 65.813 371.715 65.813 L 371.715 65.813 L 371.715 65.813 Q 374.949 65.813 376.936 64.424 L 376.936 64.424 L 376.936 64.424 Q 378.922 63.035 378.922 59.871 L 378.922 59.871 L 378.922 59.871 Q 378.922 57.41 377.797 56.197 L 377.797 56.197 L 377.797 56.197 Q 376.672 54.984 374.316 54.246 L 374.316 54.246 L 369.043 52.594 L 369.043 52.594 Q 366.934 51.926 365.58 51.275 L 365.58 51.275 L 365.58 51.275 Q 364.227 50.625 363.066 49.588 L 363.066 49.588 L 363.066 49.588 Q 361.906 48.551 361.379 47.021 L 361.379 47.021 L 361.379 47.021 Q 360.852 45.492 360.852 43.348 L 360.852 43.348 L 360.852 43.348 Q 360.852 38.637 364.086 36.334 L 364.086 36.334 L 364.086 36.334 Q 367.32 34.031 372.242 34.031 L 372.242 34.031 L 372.242 34.031 Q 377.164 34.031 381.594 36.07 L 381.594 36.07 L 380.258 39.445 L 380.258 39.445 Q 376.637 37.723 372.559 37.723 L 372.559 37.723 L 372.559 37.723 Q 369.289 37.723 367.215 39.111 L 367.215 39.111 L 367.215 39.111 Q 365.141 40.5 365.141 43.523 L 365.141 43.523 L 365.141 43.523 Q 365.141 45.773 366.283 46.688 L 366.283 46.688 L 366.283 46.688 Q 367.426 47.602 370.379 48.551 L 370.379 48.551 L 375.547 50.203 L 375.547 50.203 Q 378.395 51.117 379.994 52.189 L 379.994 52.189 L 379.994 52.189 Q 381.594 53.262 382.455 55.072 L 382.455 55.072 L 382.455 55.072 Q 383.316 56.883 383.316 59.66 L 383.316 59.66 L 383.316 59.66 Q 383.316 62.297 382.402 64.266 L 382.402 64.266 L 382.402 64.266 Q 381.488 66.234 379.854 67.359 L 379.854 67.359 L 379.854 67.359 Q 378.219 68.484 376.25 69.012 L 376.25 69.012 L 376.25 69.012 Q 374.281 69.539 371.926 69.539 L 371.926 69.539 L 371.926 69.539 Q 366.09 69.539 360.359 66.762 L 360.359 66.762 Z " fill-rule="evenodd" fill="rgb(16,9,76)"/><path d=" M 45.344 58.43 L 43.112 70.166 L 37.712 70.166 L 39.944 58.43 L 31.952 58.43 L 29.72 70.166 L 24.32 70.166 L 26.552 58.43 L 21.944 58.43 L 21.944 53.606 L 27.488 53.606 L 29.648 42.158 L 21.944 42.158 L 21.944 37.406 L 30.656 37.406 L 32.888 25.598 L 38.288 25.598 L 36.056 37.406 L 44.048 37.406 L 46.208 25.598 L 51.608 25.598 L 49.448 37.406 L 54.056 37.406 L 54.056 42.158 L 48.512 42.158 L 46.28 53.606 L 54.056 53.606 L 54.056 58.43 L 45.344 58.43 Z  M 40.808 53.606 L 43.04 42.158 L 35.12 42.158 L 32.888 53.606 L 40.808 53.606 Z  M 87.032 19.838 L 67.088 82.046 L 60.968 82.046 L 81.056 19.838 L 87.032 19.838 Z " fill-rule="evenodd" fill="rgb(225,227,245)"/></svg>