<svg version="1" xmlns="http://www.w3.org/2000/svg" width="346.667" height="346.667" viewBox="0 0 260.000000 260.000000"><path d="M200.1 52.5c-.5.5-1.8 4.1-3 8-2.3 7.2-3.8 12-21.4 66.5-5.8 17.9-15.1 46.7-20.7 64-5.5 17.3-10.5 32.8-11.1 34.4-.5 1.6-.9 3.1-.9 3.3 0 .2 4.1.2 9.2.1l9.1-.3 4.3-13c2.3-7.2 6.5-20 9.2-28.5 14.6-45.4 34.5-107.5 39.7-124 3.9-12.2 4.3-11.3-5.3-11.4-4.6-.1-8.7.3-9.1.9zM63.6 68.8c-.2.4-1.2 5-2.1 10.2-.9 5.2-1.8 9.7-2 10-.1.3-.6 2.7-1 5.5-.3 2.7-1 5.4-1.5 5.9s-6.2.9-12.7 1l-11.8.1v14l10.8.3c10.7.3 10.9.3 10.4 2.5-.3 1.2-1.5 7.8-2.7 14.7-1.3 6.9-2.6 12.9-3 13.4-.5.4-4.1.8-8.2.9h-7.4v7.1l.1 7.1 6.3.3c3.4.2 6.2.7 6.2 1.2s-.9 5.5-2 11.2c-1 5.7-2.2 11.9-2.5 13.8-.3 1.9-.8 4.3-1.1 5.2-.5 1.6.3 1.8 7.9 1.8h8.5l.7-4.3c1.2-6.9 1.4-8 3.5-18.2 1.1-5.3 2-9.9 2-10.1 0-.2 4.7-.4 10.5-.4s10.5.3 10.5.7c0 .5-.6 4.2-1.4 8.3-1.9 9.5-2.2 11.6-3.1 16.5-.4 2.2-.9 4.8-1.2 5.7-.4 1.6.4 1.8 8 1.8h8.3l2.9-15.3c1.5-8.3 3-15.8 3.2-16.5.4-.9 3.8-1.2 12.4-1.2 6.5 0 12-.3 12-.8.4-2.2.5-11.9.2-12.8-.3-.8-3.9-1.2-10.4-1.2-5.5 0-10.3-.2-10.5-.5-.3-.2.8-7.2 2.3-15.3l2.8-14.9 7.5-.3c4.1-.2 7.7-.7 8-1.2.3-.5.6-3.8.5-7.2l-.1-6.3h-6.2c-4.9 0-6.2-.3-6.1-1.5 0-.8 1.3-8.3 2.8-16.5l2.8-15-7.5-.3c-4.1-.2-7.9.1-8.4.6s-2 7.1-3.4 14.8C97 91.2 95.7 98.2 95.5 99c-.2.8-.4 1.7-.4 2-.1.3-4.7.5-10.3.4H74.5l.3-3.8c.2-2 1.4-9.2 2.7-15.9 1.3-6.7 2.1-12.5 1.9-12.9-.7-1-15.1-1-15.8 0zM92 116.2c0 1.6-6 30.1-6.4 30.5-.7.7-19.5.7-20.2 0-.5-.4 3.8-23.9 5.2-29 .5-1.5 1.9-1.7 11-1.7 5.7 0 10.4.1 10.4.2z"/></svg>